<svg width="168" height="37" viewBox="0 0 168 37" fill="none" xmlns="http://www.w3.org/2000/svg">
<path d="M15.688 24.5H14.128V19.284H7.952V24.5H6.392V13.036H7.952V18.148H14.128V13.036H15.688V24.5ZM26.2938 13.036V14.34H22.5898V24.5H21.0378V14.34H17.3178V13.036H26.2938ZM33.5633 20.356C33.6379 20.484 33.7019 20.62 33.7553 20.764C33.8139 20.9027 33.8699 21.044 33.9233 21.188C33.9766 21.0387 34.0326 20.8973 34.0913 20.764C34.1499 20.6253 34.2166 20.4867 34.2913 20.348L38.1713 13.3C38.2406 13.1773 38.3126 13.1027 38.3873 13.076C38.4619 13.0493 38.5686 13.036 38.7073 13.036H39.8513V24.5H38.4913V16.076C38.4913 15.964 38.4939 15.844 38.4993 15.716C38.5046 15.588 38.5126 15.4573 38.5233 15.324L34.5953 22.492C34.4619 22.732 34.2753 22.852 34.0353 22.852H33.8113C33.5713 22.852 33.3846 22.732 33.2513 22.492L29.2353 15.3C29.2513 15.4387 29.2619 15.5747 29.2673 15.708C29.2779 15.8413 29.2833 15.964 29.2833 16.076V24.5H27.9233V13.036H29.0673C29.2059 13.036 29.3126 13.0493 29.3873 13.076C29.4619 13.1027 29.5339 13.1773 29.6033 13.3L33.5633 20.356ZM44.194 23.196H49.154V24.5H42.642V13.036H44.194V23.196ZM63.3865 24.5H62.1865C62.0478 24.5 61.9358 24.4653 61.8505 24.396C61.7652 24.3267 61.7012 24.2387 61.6585 24.132L60.5865 21.364H55.4425L54.3705 24.132C54.3332 24.228 54.2692 24.3133 54.1785 24.388C54.0878 24.4627 53.9758 24.5 53.8425 24.5H52.6425L57.2265 13.036H58.8025L63.3865 24.5ZM55.8745 20.244H60.1545L58.3545 15.58C58.2372 15.292 58.1225 14.932 58.0105 14.5C57.9518 14.7187 57.8932 14.9213 57.8345 15.108C57.7812 15.2893 57.7278 15.4493 57.6745 15.588L55.8745 20.244ZM70.1335 17.836C70.0908 17.8947 70.0482 17.94 70.0055 17.972C69.9628 18.004 69.9015 18.02 69.8215 18.02C69.7415 18.02 69.6535 17.988 69.5575 17.924C69.4668 17.8547 69.3495 17.78 69.2055 17.7C69.0615 17.62 68.8855 17.548 68.6775 17.484C68.4748 17.4147 68.2242 17.38 67.9255 17.38C67.5308 17.38 67.1815 17.452 66.8775 17.596C66.5735 17.7347 66.3175 17.9373 66.1095 18.204C65.9068 18.4707 65.7522 18.7933 65.6455 19.172C65.5442 19.5507 65.4935 19.9747 65.4935 20.444C65.4935 20.9347 65.5495 21.372 65.6615 21.756C65.7735 22.1347 65.9308 22.4547 66.1335 22.716C66.3362 22.972 66.5815 23.1693 66.8695 23.308C67.1628 23.4413 67.4908 23.508 67.8535 23.508C68.2002 23.508 68.4855 23.468 68.7095 23.388C68.9335 23.3027 69.1202 23.2093 69.2695 23.108C69.4188 23.0067 69.5415 22.916 69.6375 22.836C69.7335 22.7507 69.8295 22.708 69.9255 22.708C70.0482 22.708 70.1388 22.7533 70.1975 22.844L70.5975 23.364C70.2455 23.796 69.8055 24.1133 69.2775 24.316C68.7495 24.5133 68.1922 24.612 67.6055 24.612C67.0988 24.612 66.6268 24.5187 66.1895 24.332C65.7575 24.1453 65.3815 23.876 65.0615 23.524C64.7415 23.1667 64.4882 22.7293 64.3015 22.212C64.1202 21.6947 64.0295 21.1053 64.0295 20.444C64.0295 19.8413 64.1122 19.284 64.2775 18.772C64.4482 18.26 64.6935 17.82 65.0135 17.452C65.3388 17.0787 65.7388 16.788 66.2135 16.58C66.6882 16.372 67.2322 16.268 67.8455 16.268C68.4108 16.268 68.9122 16.3613 69.3495 16.548C69.7868 16.7293 70.1735 16.988 70.5095 17.324L70.1335 17.836ZM78.0263 24.5H77.3943C77.2556 24.5 77.1436 24.4787 77.0583 24.436C76.9729 24.3933 76.9169 24.3027 76.8903 24.164L76.7303 23.412C76.5169 23.604 76.3089 23.7773 76.1063 23.932C75.9036 24.0813 75.6903 24.2093 75.4663 24.316C75.2423 24.4173 75.0023 24.4947 74.7463 24.548C74.4956 24.6013 74.2156 24.628 73.9063 24.628C73.5916 24.628 73.2956 24.5853 73.0182 24.5C72.7463 24.4093 72.5089 24.276 72.3063 24.1C72.1036 23.924 71.9409 23.7027 71.8183 23.436C71.7009 23.164 71.6423 22.844 71.6423 22.476C71.6423 22.156 71.7303 21.8493 71.9062 21.556C72.0823 21.2573 72.3649 20.9933 72.7543 20.764C73.1489 20.5347 73.6636 20.348 74.2983 20.204C74.9329 20.0547 75.7089 19.9693 76.6263 19.948V19.316C76.6263 18.6867 76.4903 18.212 76.2183 17.892C75.9516 17.5667 75.5543 17.404 75.0263 17.404C74.6796 17.404 74.3863 17.4493 74.1463 17.54C73.9116 17.6253 73.7063 17.724 73.5303 17.836C73.3596 17.9427 73.2103 18.0413 73.0823 18.132C72.9596 18.2173 72.8369 18.26 72.7143 18.26C72.6183 18.26 72.5329 18.236 72.4583 18.188C72.3889 18.1347 72.3329 18.0707 72.2903 17.996L72.0343 17.54C72.4823 17.108 72.9649 16.7853 73.4823 16.572C73.9996 16.3587 74.5729 16.252 75.2023 16.252C75.6556 16.252 76.0583 16.3267 76.4103 16.476C76.7623 16.6253 77.0583 16.8333 77.2983 17.1C77.5383 17.3667 77.7196 17.6893 77.8423 18.068C77.9649 18.4467 78.0263 18.8627 78.0263 19.316V24.5ZM74.3303 23.628C74.5809 23.628 74.8103 23.604 75.0182 23.556C75.2263 23.5027 75.4209 23.4307 75.6023 23.34C75.7889 23.244 75.9649 23.1293 76.1303 22.996C76.3009 22.8627 76.4663 22.7107 76.6263 22.54V20.852C75.9703 20.8733 75.4129 20.9267 74.9543 21.012C74.4956 21.092 74.1223 21.1987 73.8343 21.332C73.5463 21.4653 73.3356 21.6227 73.2023 21.804C73.0743 21.9853 73.0103 22.188 73.0103 22.412C73.0103 22.6253 73.0449 22.8093 73.1143 22.964C73.1836 23.1187 73.2769 23.2467 73.3943 23.348C73.5116 23.444 73.6503 23.516 73.8103 23.564C73.9703 23.6067 74.1436 23.628 74.3303 23.628ZM85.8876 24.5C85.685 24.5 85.557 24.4013 85.5036 24.204L85.3756 23.22C85.029 23.6413 84.6316 23.98 84.1836 24.236C83.741 24.4867 83.2316 24.612 82.6556 24.612C82.1916 24.612 81.7703 24.524 81.3916 24.348C81.013 24.1667 80.6903 23.9027 80.4236 23.556C80.157 23.2093 79.9516 22.7773 79.8076 22.26C79.6636 21.7427 79.5916 21.148 79.5916 20.476C79.5916 19.8787 79.6716 19.324 79.8316 18.812C79.9916 18.2947 80.221 17.8467 80.5196 17.468C80.8236 17.0893 81.1916 16.7933 81.6236 16.58C82.0556 16.3613 82.5463 16.252 83.0956 16.252C83.5916 16.252 84.0156 16.3373 84.3676 16.508C84.7196 16.6733 85.0343 16.908 85.3116 17.212V12.716H86.7356V24.5H85.8876ZM83.1276 23.46C83.5916 23.46 83.997 23.3533 84.3436 23.14C84.6956 22.9267 85.0183 22.6253 85.3116 22.236V18.316C85.0503 17.964 84.7623 17.7187 84.4476 17.58C84.1383 17.436 83.7943 17.364 83.4156 17.364C82.6583 17.364 82.077 17.6333 81.6716 18.172C81.2663 18.7107 81.0636 19.4787 81.0636 20.476C81.0636 21.004 81.109 21.4573 81.1996 21.836C81.2903 22.2093 81.4236 22.5187 81.5996 22.764C81.7756 23.004 81.9916 23.18 82.2476 23.292C82.5036 23.404 82.797 23.46 83.1276 23.46ZM92.3291 16.268C92.8145 16.268 93.2625 16.3507 93.6731 16.516C94.0838 16.676 94.4385 16.9107 94.7371 17.22C95.0358 17.524 95.2678 17.9027 95.4331 18.356C95.6038 18.804 95.6891 19.316 95.6891 19.892C95.6891 20.116 95.6651 20.2653 95.6171 20.34C95.5691 20.4147 95.4785 20.452 95.3451 20.452H89.9531C89.9638 20.964 90.0331 21.4093 90.1611 21.788C90.2891 22.1667 90.4651 22.484 90.6891 22.74C90.9131 22.9907 91.1798 23.18 91.4891 23.308C91.7985 23.4307 92.1451 23.492 92.5291 23.492C92.8865 23.492 93.1931 23.452 93.4491 23.372C93.7105 23.2867 93.9345 23.196 94.1211 23.1C94.3078 23.004 94.4625 22.916 94.5851 22.836C94.7131 22.7507 94.8225 22.708 94.9131 22.708C95.0305 22.708 95.1211 22.7533 95.1851 22.844L95.5851 23.364C95.4091 23.5773 95.1985 23.764 94.9531 23.924C94.7078 24.0787 94.4438 24.2067 94.1611 24.308C93.8838 24.4093 93.5958 24.484 93.2971 24.532C92.9985 24.5853 92.7025 24.612 92.4091 24.612C91.8491 24.612 91.3318 24.5187 90.8571 24.332C90.3878 24.14 89.9798 23.8627 89.6331 23.5C89.2918 23.132 89.0251 22.6787 88.8331 22.14C88.6411 21.6013 88.5451 20.9827 88.5451 20.284C88.5451 19.7187 88.6305 19.1907 88.8011 18.7C88.9771 18.2093 89.2278 17.7853 89.5531 17.428C89.8785 17.0653 90.2758 16.7827 90.7451 16.58C91.2145 16.372 91.7425 16.268 92.3291 16.268ZM92.3611 17.316C91.6731 17.316 91.1318 17.516 90.7371 17.916C90.3425 18.3107 90.0971 18.86 90.0011 19.564H94.4091C94.4091 19.2333 94.3638 18.932 94.2731 18.66C94.1825 18.3827 94.0491 18.1453 93.8731 17.948C93.6971 17.7453 93.4811 17.5907 93.2251 17.484C92.9745 17.372 92.6865 17.316 92.3611 17.316ZM97.5118 24.5V16.396H98.3598C98.5624 16.396 98.6904 16.4947 98.7438 16.692L98.8478 17.524C99.1464 17.156 99.4798 16.8547 99.8478 16.62C100.221 16.3853 100.653 16.268 101.144 16.268C101.693 16.268 102.136 16.42 102.472 16.724C102.813 17.028 103.058 17.4387 103.208 17.956C103.32 17.6627 103.466 17.4093 103.648 17.196C103.834 16.9827 104.042 16.8067 104.272 16.668C104.501 16.5293 104.744 16.428 105 16.364C105.261 16.3 105.525 16.268 105.792 16.268C106.218 16.268 106.597 16.3373 106.928 16.476C107.264 16.6093 107.546 16.8067 107.776 17.068C108.01 17.3293 108.189 17.652 108.312 18.036C108.434 18.4147 108.496 18.8493 108.496 19.34V24.5H107.072V19.34C107.072 18.7053 106.933 18.2253 106.656 17.9C106.378 17.5693 105.976 17.404 105.448 17.404C105.213 17.404 104.989 17.4467 104.776 17.532C104.568 17.612 104.384 17.732 104.224 17.892C104.064 18.052 103.936 18.2547 103.84 18.5C103.749 18.74 103.704 19.02 103.704 19.34V24.5H102.28V19.34C102.28 18.6893 102.149 18.204 101.888 17.884C101.626 17.564 101.245 17.404 100.744 17.404C100.392 17.404 100.064 17.5 99.7598 17.692C99.4611 17.8787 99.1864 18.1347 98.9358 18.46V24.5H97.5118ZM112.778 26.892C112.73 26.9987 112.669 27.084 112.594 27.148C112.525 27.212 112.416 27.244 112.266 27.244H111.21L112.69 24.028L109.346 16.396H110.578C110.701 16.396 110.797 16.428 110.866 16.492C110.936 16.5507 110.986 16.6173 111.018 16.692L113.186 21.796C113.234 21.9133 113.274 22.0307 113.306 22.148C113.344 22.2653 113.376 22.3853 113.402 22.508C113.44 22.3853 113.477 22.2653 113.514 22.148C113.552 22.0307 113.594 21.9107 113.642 21.788L115.746 16.692C115.778 16.6067 115.832 16.5373 115.906 16.484C115.986 16.4253 116.072 16.396 116.162 16.396H117.298L112.778 26.892Z" fill="#444444"/>
<g clip-path="url(#clip0_108576_45)">
<path d="M154.643 1.51575L154.5 1.5L141 2.90733V27.5129L154.5 35.5L168 27.5129V2.90733L154.643 1.51575ZM166.234 26.5151L154.5 33.4573L142.766 26.5151V16.4293L154.451 23.3451L154.47 24.5984L146.454 19.8548L146.443 21.0801L154.489 25.8885L154.509 27.175L146.464 22.4174L146.454 23.6427L154.5 28.4511L162.624 23.6182V22.3929V18.409L166.243 16.2595L166.234 26.5151ZM166.234 14.9519L163.015 16.8319L161.533 17.7071L154.467 13.5201L154.456 14.7454L160.496 18.318L160.443 18.3495L160.313 18.4247L159.454 18.9166L154.467 15.9689L154.456 17.1942L158.392 19.5222L157.459 20.1314L157.438 20.1436L154.467 18.402L154.456 19.6273L156.403 20.7615L154.416 21.9483L142.797 15.0762L154.435 8.11831L166.234 14.9519ZM166.234 13.7266L154.44 6.81075L142.766 13.7196V4.4897L154.5 3.26442L166.234 4.4897V13.7266Z" fill="#666666"/>
</g>
<defs>
<clipPath id="clip0_108576_45">
<rect width="27" height="34" fill="white" transform="translate(141 1.5)"/>
</clipPath>
</defs>
</svg>
